<svg xmlns="http://www.w3.org/2000/svg" xmlns:xlink="http://www.w3.org/1999/xlink" width="1588.668" height="263.719" viewBox="0 0 1191.501 197.789" preserveAspectRatio="xMidYMid meet"><path fill="#60b0f4" d="M65.841 13.476c0 1.2-1.3 1.5-5.9 1.5-3.2 0-7.5.7-9.4 1.5-2 .8-6.3 1.5-9.5 1.5-4.6 0-6.3.4-7.7 2-2 2.2-5.5 3.5-13.4 5-3.1.6-6.3 1.9-7.3 3-1.4 1.5-3.2 2-7.3 2-6.2 0-6-.4-4.4 9 1.4 8.6 3 11 7.4 11 1.9 0 3.5.2 3.5.5s-.7 4.7-1.5 9.8c-.8 5-1.9 16.6-2.5 25.7l-2 29.5c-1.1 14.1-.5 25.1 1.6 30.4.9 2 1.4 7.1 1.4 13.1 0 13.3 2.6 20.2 9 23.5 2.5 1.3 3.2 1.2 6.8-.5 2.3-1.1 4.8-2 5.6-2 3 0 3.4-27.6.5-35.8-1.4-4.2-.3-5.6 6.4-7.8 4.4-1.5 7.6-1.6 22.8-1.1 15.3.6 18.2 1 21.2 2.7 4.1 2.4 11.3 4.6 18.5 5.5 4 .5 6.8 1.8 11.5 5.1 3.4 2.5 8.1 5.4 10.4 6.4 2.2 1.1 6.4 4.7 9.2 7.9 5.5 6.3 13.2 12.1 16.2 12.1 1 0 2.2-.6 2.6-1.4s2.4-2.1 4.4-2.9c3.3-1.4 3.6-1.8 3.5-5.3-.1-4.4-2.1-6.4-25.9-25.5-13.6-11-17.8-13.4-28.3-16-7.8-1.9-17.4-5.7-17.3-6.8 0-.3 3.7-2.4 8.1-4.6 23.8-11.6 44.6-30.5 51.9-46.9 1-2.3 2.3-7.5 3-11.5 1.1-7.1 1-7.5-1.7-13-3.5-7.2-5-8.9-9.9-11.3-2.2-1.2-6.4-4.2-9.3-6.9-9.1-8.3-20.4-10.8-48.9-10.9-11.2 0-13.3.2-13.3 1.5zm37.4 21.5c12.4 1.8 21.6 7.5 21.6 13.3 0 5.7-11.5 23.1-21.8 32.9-10.4 9.9-22.7 16.8-45.2 25.5l-17.9 7c-5.5 2.4-6.4 2.5-7.2 1.1-.5-1-1.7-1.4-3.3-1.1-2 .4-2.4.2-2-1.3.2-1.1.8-9 1.3-17.7.7-12.7 1.2-16.2 2.6-17.7 1.1-1.2 2.1-4.8 2.6-9.2l1.5-11.1c.4-2.6.1-4.5-1-6.1-1.5-2.4-1.4-2.6 1.5-5.1 1.9-1.5 3.8-2.3 4.9-2 .9.3 7.5-1.3 14.6-3.6 10.2-3.3 15.1-4.3 23.4-4.9 15.9-1 17-1 24.4 0z"/><path fill="#2ebe61" d="M756.841 13.076c0 .5-3.7.8-8.2.8-12.7 0-24 4.2-28.1 10.5-1 1.4-3.6 3.5-5.8 4.7-2.3 1.1-3.8 2.3-3.5 2.6s-.3 2.1-1.4 3.8c-1.9 3-1.9 3.5-.5 6.9 2.4 5.7 8.5 8.5 13.9 6.2 2.4-1 3-1.8 3-4.5.1-2.7.7-3.7 3.8-5.4 2-1.2 4-1.8 4.4-1.4s.2 6.3-.4 13c-1.5 15.2-1.5 22.9-.1 27.8 1 3.3.9 4.1-1 6.5-2.5 3.1-2.6 5.1-.6 7.8 3.1 4.1 1.1 11.7-3.2 12.1-3.1.2-7.1 3.2-8.8 6.6-2.5 4.8-1.1 8.3 6.2 15.3l6.4 6.2.9 7.4c.5 4.1 1.4 13.1 2 19.9.7 8.4 1.8 14.1 3.3 18l2.3 5.6 5.1-.1c6.5-.2 11-2.7 13.6-7.7l1.9-3.8-2.8-15.2c-1.5-8.4-2.8-18.1-2.8-21.7l-.1-6.5 6.4-3c3.5-1.7 6.8-3.8 7.5-4.6 1.6-2.2 6.6-3.6 17.6-4.8 11.9-1.4 16.2-2.6 19.7-5.5 1.5-1.3 7.9-4.9 14.1-8.1 11.3-5.7 21.5-13.6 22.7-17.6.4-1.2 2.4-3.6 4.5-5.5 12.3-11.1 10-32.4-5.1-47.5-4.3-4.3-7.5-6.4-14.2-9.2-19.6-8.2-33.4-10.8-56.3-10.5-9 .1-16.4.5-16.4.9zm28 17c2.5.5 8.5 1.4 13.3 1.9 14.2 1.5 22.8 4.7 30 11 4.5 3.9 6.1 7.9 5.5 14-.6 6-3.5 10.5-13.3 20.6-8.3 8.5-20.8 15.4-27.9 15.4-2.9 0-5.2.8-7.5 2.4-1.8 1.4-5.6 3-8.4 3.7-2.9.6-6.8 2-8.7 2.9-5.6 2.8-10.9 4-11.7 2.7-.7-1.1-1.6-24.2-1.5-38.7 0-3.7.6-8.6 1.3-11 .6-2.5 1.3-8.7 1.4-13.8s.5-9.5.8-9.8c2.2-2.2 19-3 26.7-1.3z"/><use xlink:href="#B" fill="#60b0f4"/><g fill="#2ebe61"><use xlink:href="#B" x="447"/><path d="M1169.441 37.176l1.3 53.3c.4 19.5.3 32.9-.5 41-.6 6.6-1.4 18.5-1.8 26.5-.8 16 0 19.4 5.4 23.1 3.5 2.4 11 3.4 11 1.5 0-.8 1.2-2.3 2.6-3.3l2.5-1.9 1.1-27.9c1.5-39.9-.5-83.6-5.3-119.7-1-7.7-1.4-8.7-3.4-9.2-1.3-.3-4.2-2.2-6.5-4.1-7.2-6-7.1-6.5-6.4 20.7z"/></g><g fill="#60b0f4"><use xlink:href="#C"/><path d="M331.841 58.576c-1.4.7-3.3 1.3-4.2 1.4-1 0-1.8.4-1.8.8 0 .5-2.4 1.8-5.3 3-3.5 1.5-5.9 3.2-6.8 5-.8 1.5-2.2 3.3-3.1 4-.9.6-3.8 4.4-6.4 8.3-4.3 6.5-4.7 7.6-4.6 12.9.1 3.6 1 8.1 2.4 11.7 2 4.8 2.7 5.8 4.6 5.6 1.7-.2 2.9.9 5.3 4.7 1.7 2.8 3.5 5 4 5s1.9 1 3.2 2.2c2 2.1 3.1 2.3 9.9 2 6.3-.2 9.4.3 17.5 2.9 5.4 1.7 11.8 4.2 14.2 5.5s4.8 2.1 5.3 1.8c2.3-1.5 9.6 8.4 7.7 10.3-.8.8-.7 1.3 0 1.7.6.4 1.1 2 1.1 3.6 0 2.1-1 3.7-3.7 6-5.1 4.1-11.2 7-15.1 7-1.7 0-3.5.7-3.9 1.5-.7 1.2-1.9 1.3-6.8.5-3.3-.5-8.4-1-11.3-1s-6.8-.6-8.6-1.4c-3.5-1.5-7.1-5.6-5.7-6.6.6-.4 3.1-6.4 3.1-7.5 0-1-6.4-2.6-8.4-2.1-1.6.4-2.6.1-2.9-.8-1-2.5-4.4-.6-6.1 3.5-.9 2.1-2.3 5.6-3.2 7.8-1.2 2.8-1.3 4.4-.6 5.8.6 1.1 1.2 3.1 1.4 4.5.4 3.1 2.5 5.8 4.5 5.8.7 0 2.6 1.1 4.1 2.5 6.2 5.7 19.1 8.8 38.2 8.9 11.4.1 14.6-.3 20.6-2.1 17.6-5.6 27.4-19.1 27.4-37.8 0-6.9-1.3-9.3-9-17.1-5.4-5.4-13-9.8-19.3-10.9-2.6-.5-4.6-1.8-6.3-4-2.8-3.8-4.2-4.1-20.6-5.4-8.8-.7-11.6-1.4-15.2-3.5-9.6-5.6-10.7-11.7-3.3-18.2 8.8-7.6 21.2-11 31.4-8.5 7.3 1.8 14.5 5.8 17.3 9.6 2.8 3.9 4 4.2 7.6 1.9 3.2-2.2 5.4-6.4 5.4-10.6 0-2.8-.9-4.2-5.7-8.4-3.2-2.8-7.1-5.8-8.8-6.6-5.5-3-16-6.6-16.3-5.7-.2.5-.8.7-1.3.3-2.2-1.3-19.5-1.2-21.9.2z"/><use xlink:href="#C" x="417"/></g><use xlink:href="#C" x="864" fill="#2ebe61"/><path fill="#60b0f4" d="M494.841 61.376c-3.6.6-7.6 1.8-8.9 2.5-1.7.9-4.3 1.2-8.7.7-7-.7-7.1-.6-7.5 6.9-.4 8-.3 8.2 4.4 8.9 2.3.4 12.1-.3 22-1.4 20-2.3 30.2-2.5 37.9-.9 2.9.6 5.5 1.3 5.7 1.5 1 1-5.6 8.6-12.1 13.9-11 8.9-17.8 15.6-19.5 19-.8 1.6-2.4 3.7-3.5 4.5-1 .9-4.7 5.6-8.1 10.5-3.6 5.1-8 10.1-10.2 11.6-2.9 2-5.8 5.7-10.4 13.6-3.5 5.9-7.9 12.8-9.6 15.3-2.1 3.1-3.4 6.2-3.8 9.7l-.6 5.2 5.2.6c2.9.4 10.9.1 17.9-.5 10.7-.9 20.1-1.1 46.8-1 2 0 5.8-.4 8.5-.9 3.7-.7 5.5-.6 7 .3 4.2 2.7 7.3 2.7 15.5-.1 6.1-2 8-3.1 8-4.5 0-1-.7-1.8-1.5-1.8s-1.5-.9-1.5-2c0-1-.5-3.1-1.2-4.5-.9-2.1-1.7-2.5-3.6-2-1.5.4-4.1-.3-7-1.7-5.5-2.7-11.2-2.8-37.2-1.1-15.8 1-16.7.9-20.7-1-2.4-1.1-4.3-2.2-4.3-2.4s.9-2.1 2-4.2c1.8-3.7 14.3-16.1 16.1-16.1.5 0 .9-1.3.9-2.9 0-2.4 3-5.9 17.8-20.9 9.7-9.9 20.8-20.3 24.6-23 6.1-4.4 7.2-5.7 9.2-10.8 1.2-3.3 2.8-7.3 3.5-9.1 1.2-2.9 1.1-3.4-.6-5.4-3-3.2-6.1-4.1-16.5-4.4-5.2-.1-14.4-1-20.5-1.9-12.8-1.8-26.2-1.9-35.5-.2z"/><path fill="#2ebe61" d="M915.141 61.076c-1.9 2-1.6 4.3 1.1 7.2 1.4 1.5 2.8 3.7 3.1 4.9 1.2 4 5.3 10.4 14.5 22.7 8.5 11.4 13 18.7 13 21.1 0 .6-1.4 2.3-3.1 3.7-4.2 3.5-16.8 23-15.7 24.1.5.5-.6 1.9-2.6 3.3-2.4 1.6-3.4 3-3.1 4 .4 1-.6 2.9-2.3 4.6-2 1.9-3.1 4.3-3.6 7.5-.4 2.6-1.5 5.7-2.5 7-4.1 5.2 3.6 14.1 10.7 12.3 4-1 10-7.8 17.2-19.5 3.5-5.8 7.9-12.7 9.8-15.4 3.9-5.4 10.5-10.6 13.4-10.6 3.3 0 12.2 9.5 20.9 22.3 12.3 18 17.1 22.7 23.2 22.7 3 0 9.2-6.3 8.4-8.5-1.1-2.8-8.8-13.6-21.2-30-6.7-8.8-13.5-18-15-20.4l-2.9-4.3 3.1-2.7c3.8-3.2 5.3-6 5.3-9.8 0-2 1.4-4.3 4.5-7.8 2.5-2.7 6.4-8.7 8.7-13.2 2.4-5 5.6-9.7 8-11.9 5.1-4.5 4.6-7.2-1.7-11-6.1-3.5-11.9-4.3-14.7-1.8-3 2.7-7.8 10.4-7.8 12.6 0 1.1-.7 1.8-2 1.8-2.7 0-4.8 3.5-6 10-1.1 6-4.2 10-7.7 10-1.3 0-2.3.5-2.3 1 0 .6-.7 2.2-1.6 3.6-1.4 2-1.9 2.2-3.1 1.2-2.4-2-16.5-23.8-19.4-30-3.8-7.9-8.5-11-18.2-11.5-5.1-.4-7.6-.1-8.4.8z"/><use xlink:href="#D" fill="#60b0f4"/><use xlink:href="#D" x="447" fill="#2ebe61"/><defs ><path id="B" d="M427.541 16.176c-.8 1.8-2.6 3.9-4 4.7-2.3 1.2-2.7 2.1-2.7 5.5.1 6.9 6.4 18.6 10.1 18.6 3.9 0 8-3.1 10-7.3 2.2-4.9 2.5-12.4.5-15.2-.7-1.1-1.6-3.2-2-4.8-.5-2.2-1.2-2.7-3.7-2.7-1.7 0-3.9-.5-4.9-1-1.7-.9-2.2-.6-3.3 2.2z"/><path id="C" d="M223.241 58.876c-2.3.9-4.9 2.2-5.8 3s-1.9 1.1-2.3.7c-.3-.3-1.3.3-2 1.4-.8 1.1-3.4 3-5.8 4.3-3.4 1.7-6.1 4.7-12.6 13.7-8.9 12.6-13.4 21-14.4 27.3-.9 5.3-4 8-7 6.2-1.1-.8-3.8-1.3-5.9-1.2-3.7.1-4 .4-6.3 5.3-1.3 2.8-2.4 6.9-2.6 9l-.2 3.8 7.2 2.1c8.9 2.5 10.7 4.1 10.8 9.9.1 2.4.6 5 1.2 5.8.6.7 1.3 3.3 1.7 5.8.7 4.9 4.4 13.3 7.3 16.6 3.7 4.2 11.1 9.1 17.2 11.4 5.9 2.2 6.6 2.2 16.7 1.1 20.5-2.3 37.4-8.1 54.1-18.4l9.1-5.7-.5-4.3c-.9-7.8-2.4-14.4-3.7-16.3-1.3-1.7-1.5-1.6-3.4 1.6-3.3 5.6-4.1 6.1-7.5 5.5-2.6-.5-3.7-.1-5.6 1.9-1.6 1.7-4.3 2.9-8 3.6-3.1.7-10.1 3.2-15.6 5.8-9.5 4.3-10.5 4.6-19 4.6-7.4 0-9.7-.3-13.2-2.2-5.3-2.8-8.9-8.2-9.8-14.5-.9-5.9.8-8.3 7.1-9.8 2.3-.6 5.1-1.9 6.2-3 1.6-1.4 2.6-1.6 5.2-.9 2.7.8 3.2.6 4.2-1.6.7-1.5 2-2.4 3.3-2.4s4.9-2 8.1-4.5c3.1-2.5 6.3-4.5 6.9-4.5s2.2-1.1 3.5-2.5c1.4-1.5 4.3-2.8 7.5-3.5 4.8-1 5.8-1.7 10.9-7.8 9.5-11.3 13.9-22.6 12.2-31.6-.4-2.2-2.4-5.6-5.1-8.7-2.5-2.7-4.5-5.4-4.5-5.9 0-3.3-32-4.2-39.6-1.1zm25.9 17.2c3.2.9 3.7 1.4 3.7 4 0 2.4-1.5 4.4-7.6 10.4-4.3 4.1-8.4 7.5-9.2 7.5-2.5 0-7.8 3.8-9 6.5-.6 1.4-2 2.5-3 2.5s-4.9 2-8.7 4.5c-7.2 4.8-10 5.9-13.3 5.3l-2-.3 2-6c2.3-6.9 13.9-22.8 20.3-28.1 8.3-6.8 17.4-8.9 26.8-6.3z"/><path id="D" d="M427.841 74.976c-1.8 1.1-2.9 11.3-2.9 30a703.03 703.03 0 0 1-1.2 30.9c-.9 12.6-.8 17.2.1 20 1 3 .9 4.7-.5 9.4-1.7 5.8-1.7 5.8.7 9.3 1.2 1.8 2.8 3.4 3.4 3.4.7 0 1.5 1.1 1.8 2.4 1.3 5.1 7.9 3.1 11.6-3.6 2-3.6 2.2-5.7 2.8-28.1 1-37 .7-58.5-.7-65-1.1-5.2-1.6-5.9-5.1-7.7-4.2-2.2-7.6-2.5-10-1z"/></defs></svg>