<svg xmlns="http://www.w3.org/2000/svg" width="411.643" height="228.635" viewBox="0 0 308.732 171.476" preserveAspectRatio="xMidYMid meet"><path fill="#60b0f4" d="M65.841 1.476c0 1.2-1.3 1.5-5.9 1.5-3.2 0-7.5.7-9.4 1.5-2 .8-6.3 1.5-9.5 1.5-4.6 0-6.3.4-7.7 2-2 2.2-5.5 3.5-13.4 5-3.1.6-6.3 1.9-7.3 3-1.4 1.5-3.2 2-7.3 2-6.2 0-6-.4-4.4 9 1.4 8.6 3 11 7.4 11 1.9 0 3.5.2 3.5.5s-.7 4.7-1.5 9.8c-.8 5-1.9 16.6-2.5 25.7l-2 29.5c-1.1 14.1-.5 25.1 1.6 30.4.9 2 1.4 7.1 1.4 13.1 0 13.3 2.6 20.2 9 23.5 2.5 1.3 3.2 1.2 6.8-.5 2.3-1.1 4.8-2 5.6-2 3 0 3.4-27.6.5-35.8-1.4-4.2-.3-5.6 6.4-7.8 4.4-1.5 7.6-1.6 22.8-1.1 15.3.6 18.2 1 21.2 2.7 4.1 2.4 11.3 4.6 18.5 5.5 4 .5 6.8 1.8 11.5 5.1 3.4 2.5 8.1 5.4 10.4 6.4 2.2 1.1 6.4 4.7 9.2 7.9 5.5 6.3 13.2 12.1 16.2 12.1 1 0 2.2-.6 2.6-1.4s2.4-2.1 4.4-2.9c3.3-1.4 3.6-1.8 3.5-5.3-.1-4.4-2.1-6.4-25.9-25.5-13.6-11-17.8-13.4-28.3-16-7.8-1.9-17.4-5.7-17.3-6.8 0-.3 3.7-2.4 8.1-4.6 23.8-11.6 44.6-30.5 51.9-46.9 1-2.3 2.3-7.5 3-11.5 1.1-7.1 1-7.5-1.7-13-3.5-7.2-5-8.9-9.9-11.3-2.2-1.2-6.4-4.2-9.3-6.9-9.1-8.3-20.4-10.8-48.9-10.9-11.2 0-13.3.2-13.3 1.5zm37.4 21.5c12.4 1.8 21.6 7.5 21.6 13.3 0 5.7-11.5 23.1-21.8 32.9-10.4 9.9-22.7 16.8-45.2 25.5l-17.9 7c-5.5 2.4-6.4 2.5-7.2 1.1-.5-1-1.7-1.4-3.3-1.1-2 .4-2.4.2-2-1.3.2-1.1.8-9 1.3-17.7.7-12.7 1.2-16.2 2.6-17.7 1.1-1.2 2.1-4.8 2.6-9.2l1.5-11.1c.4-2.6.1-4.5-1-6.1-1.5-2.4-1.4-2.6 1.5-5.1 1.9-1.5 3.8-2.3 4.9-2 .9.3 7.5-1.3 14.6-3.6 10.2-3.3 15.1-4.3 23.4-4.9 15.9-1 17-1 24.4 0z"/><path fill="#2ebe61" d="M208.841 1.076c0 .5-3.7.8-8.2.8-12.7 0-24 4.2-28.1 10.5-1 1.4-3.6 3.5-5.8 4.7-2.3 1.1-3.8 2.3-3.5 2.6s-.3 2.1-1.4 3.8c-1.9 3-1.9 3.5-.5 6.9 2.4 5.7 8.5 8.5 13.9 6.2 2.4-1 3-1.8 3-4.5.1-2.7.7-3.7 3.8-5.4 2-1.2 4-1.8 4.4-1.4s.2 6.3-.4 13c-1.5 15.2-1.5 22.9-.1 27.8 1 3.3.9 4.1-1 6.5-2.5 3.1-2.6 5.1-.6 7.8 3.1 4.1 1.1 11.7-3.2 12.1-3.1.2-7.1 3.2-8.8 6.6-2.5 4.8-1.1 8.3 6.2 15.3l6.4 6.2.9 7.4c.5 4.1 1.4 13.1 2 19.9.7 8.4 1.8 14.1 3.3 18l2.3 5.6 5.1-.1c6.5-.2 11-2.7 13.6-7.7l1.9-3.8-2.8-15.2c-1.5-8.4-2.8-18.1-2.8-21.7l-.1-6.5 6.4-3c3.5-1.7 6.8-3.8 7.5-4.6 1.6-2.2 6.6-3.6 17.6-4.8 11.9-1.4 16.2-2.6 19.7-5.5 1.5-1.3 7.9-4.9 14.1-8.1 11.3-5.7 21.5-13.6 22.7-17.6.4-1.2 2.4-3.6 4.5-5.5 12.3-11.1 10-32.4-5.1-47.5-4.3-4.3-7.5-6.4-14.2-9.2-19.6-8.2-33.4-10.8-56.3-10.5-9 .1-16.4.5-16.4.9zm28 17c2.5.5 8.5 1.4 13.3 1.9 14.2 1.5 22.8 4.7 30 11 4.5 3.9 6.1 7.9 5.5 14-.6 6-3.5 10.5-13.3 20.6-8.3 8.5-20.8 15.4-27.9 15.4-2.9 0-5.2.8-7.5 2.4-1.8 1.4-5.6 3-8.4 3.7-2.9.6-6.8 2-8.7 2.9-5.6 2.8-10.9 4-11.7 2.7-.7-1.1-1.6-24.2-1.5-38.7 0-3.7.6-8.6 1.3-11 .6-2.5 1.3-8.7 1.4-13.8s.5-9.5.8-9.8c2.2-2.2 19-3 26.7-1.3z"/></svg>